<svg width="52" height="52" viewBox="0 0 52 52" fill="none" xmlns="http://www.w3.org/2000/svg">
<path fill-rule="evenodd" clip-rule="evenodd" d="M24.7374 15.3718C25.968 14.1095 27.637 13.4002 29.3774 13.4H32.7524C33.0011 13.4 33.2395 13.5013 33.4154 13.6817C33.5912 13.862 33.6899 14.1065 33.6899 14.3616V18.9769C33.6899 19.232 33.5912 19.4765 33.4154 19.6569C33.2395 19.8372 33.0011 19.9385 32.7524 19.9385H29.3774C29.3528 19.9385 29.3284 19.9435 29.3057 19.9531C29.2829 19.9628 29.2623 19.977 29.2449 19.9948C29.2274 20.0127 29.2136 20.0339 29.2042 20.0572C29.1948 20.0805 29.1899 20.1055 29.1899 20.1308V22.6308H32.7524C32.895 22.6307 33.0356 22.664 33.1637 22.728C33.2919 22.7921 33.404 22.8852 33.4918 23.0004C33.5795 23.1156 33.6405 23.2498 33.6701 23.3928C33.6996 23.5358 33.697 23.6839 33.6624 23.8257L32.5374 28.4411C32.4867 28.6491 32.3695 28.8339 32.2047 28.9658C32.0398 29.0978 31.8366 29.1694 31.6274 29.1693H29.1899V37.4385C29.1899 37.6935 29.0912 37.9381 28.9154 38.1184C28.7395 38.2987 28.5011 38.4 28.2524 38.4H23.7524C23.5038 38.4 23.2653 38.2987 23.0895 38.1184C22.9137 37.9381 22.8149 37.6935 22.8149 37.4385V29.1693H20.3774C20.1288 29.1693 19.8903 29.068 19.7145 28.8876C19.5387 28.7073 19.4399 28.4627 19.4399 28.2077V23.5923C19.4399 23.4661 19.4642 23.341 19.5113 23.2244C19.5584 23.1077 19.6275 23.0017 19.7145 22.9124C19.8016 22.8231 19.9049 22.7523 20.0187 22.704C20.1324 22.6557 20.2543 22.6308 20.3774 22.6308H22.8149V20.1308C22.8151 18.3458 23.5067 16.6339 24.7374 15.3718ZM29.3774 15.3231C28.1342 15.3231 26.942 15.8296 26.0629 16.7312C25.1838 17.6329 24.6899 18.8557 24.6899 20.1308V23.5923C24.6899 23.8473 24.5912 24.0919 24.4154 24.2722C24.2395 24.4526 24.0011 24.5539 23.7524 24.5539H21.3149V27.2462H23.7524C24.0011 27.2462 24.2395 27.3475 24.4154 27.5278C24.5912 27.7081 24.6899 27.9527 24.6899 28.2077V36.4769H27.3149V28.2077C27.3149 27.9527 27.4137 27.7081 27.5895 27.5278C27.7653 27.3475 28.0038 27.2462 28.2524 27.2462H30.8949L31.5512 24.5539H28.2524C28.0038 24.5539 27.7653 24.4526 27.5895 24.2722C27.4137 24.0919 27.3149 23.8473 27.3149 23.5923V20.1308C27.3149 19.5698 27.5322 19.0317 27.919 18.635C28.3058 18.2383 28.8304 18.0154 29.3774 18.0154H31.8149V15.3231H29.3774Z" fill="black"/>
<circle cx="26.4399" cy="26.4" r="24.75" stroke="black" stroke-width="1.5"/>
</svg>
