<svg width="85" height="85" viewBox="0 0 85 85" fill="none" xmlns="http://www.w3.org/2000/svg">
<circle cx="42.5" cy="42.5" r="42.5" fill="#F2F7FF"/>
<path d="M33.9318 58V52.3182L44.7841 43.3409C45.5038 42.7443 46.1193 42.1856 46.6307 41.6648C47.1515 41.1345 47.5492 40.59 47.8239 40.0312C48.108 39.4725 48.25 38.8523 48.25 38.1705C48.25 37.4223 48.089 36.7831 47.767 36.2528C47.4545 35.7225 47.0189 35.3153 46.4602 35.0312C45.9015 34.7377 45.2576 34.5909 44.5284 34.5909C43.7992 34.5909 43.1553 34.7377 42.5966 35.0312C42.0473 35.3248 41.6212 35.7557 41.3182 36.3239C41.0152 36.892 40.8636 37.5833 40.8636 38.3977H33.3636C33.3636 36.3523 33.8229 34.5909 34.7415 33.1136C35.66 31.6364 36.9574 30.5 38.6335 29.7045C40.3097 28.9091 42.2746 28.5114 44.5284 28.5114C46.858 28.5114 48.875 28.8854 50.5795 29.6335C52.2936 30.3722 53.6146 31.4138 54.5426 32.7585C55.4801 34.1032 55.9489 35.6799 55.9489 37.4886C55.9489 38.6061 55.7169 39.7187 55.2528 40.8267C54.7888 41.9252 53.9555 43.142 52.7528 44.4773C51.5502 45.8125 49.8409 47.4034 47.625 49.25L44.8977 51.5227V51.6932H56.2614V58H33.9318Z" fill="#0752E8"/>
</svg>
