<svg width="85" height="85" viewBox="0 0 85 85" fill="none" xmlns="http://www.w3.org/2000/svg">
<circle cx="42.5" cy="42.5" r="42.5" fill="#F2F7FF"/>
<path d="M45.2955 58.3977C43.0038 58.3977 40.9678 58.0047 39.1875 57.2188C37.4167 56.4233 36.0246 55.3295 35.0114 53.9375C33.9981 52.5455 33.4867 50.9451 33.4773 49.1364H41.4318C41.4413 49.6951 41.6117 50.197 41.9432 50.642C42.2841 51.0777 42.7481 51.4186 43.3352 51.6648C43.9223 51.911 44.5947 52.0341 45.3523 52.0341C46.0814 52.0341 46.7254 51.9062 47.2841 51.6506C47.8428 51.3854 48.2784 51.0208 48.5909 50.5568C48.9034 50.0928 49.0549 49.5625 49.0455 48.9659C49.0549 48.3788 48.875 47.858 48.5057 47.4034C48.1458 46.9489 47.6392 46.5937 46.9858 46.3381C46.3324 46.0824 45.5795 45.9545 44.7273 45.9545H41.7727V40.5H44.7273C45.5133 40.5 46.2045 40.3722 46.8011 40.1165C47.4072 39.8608 47.8759 39.5057 48.2074 39.0511C48.5483 38.5966 48.714 38.0758 48.7045 37.4886C48.714 36.9205 48.5767 36.4186 48.2926 35.983C48.0085 35.5473 47.6108 35.2064 47.0994 34.9602C46.5975 34.714 46.0152 34.5909 45.3523 34.5909C44.6326 34.5909 43.9886 34.7187 43.4205 34.9744C42.8617 35.2301 42.4214 35.5852 42.0994 36.0398C41.7775 36.4943 41.6117 37.0152 41.6023 37.6023H34.0455C34.0549 35.822 34.5426 34.25 35.5085 32.8864C36.4839 31.5227 37.8191 30.4527 39.5142 29.6761C41.2093 28.8996 43.1553 28.5114 45.3523 28.5114C47.5019 28.5114 49.4006 28.8759 51.0483 29.6051C52.7055 30.3343 53.9981 31.3381 54.9261 32.6165C55.8636 33.8854 56.3277 35.339 56.3182 36.9773C56.3371 38.6061 55.7784 39.9413 54.642 40.983C53.5152 42.0246 52.0852 42.6402 50.3523 42.8295V43.0568C52.7008 43.3125 54.4669 44.0322 55.6506 45.2159C56.8343 46.3902 57.4167 47.8674 57.3977 49.6477C57.4072 51.3523 56.8958 52.8627 55.8636 54.179C54.8409 55.4953 53.4157 56.5275 51.5881 57.2756C49.7699 58.0237 47.6723 58.3977 45.2955 58.3977Z" fill="#0752E8"/>
</svg>
