<svg width="52" height="52" viewBox="0 0 52 52" fill="none" xmlns="http://www.w3.org/2000/svg">
<path fill-rule="evenodd" clip-rule="evenodd" d="M26.4399 13.4C22.9091 13.4 22.4671 13.4156 21.08 13.478C19.6968 13.5417 18.7517 13.7614 17.9249 14.0825C17.0572 14.4086 16.271 14.9201 15.6213 15.5814C14.96 16.2311 14.4485 17.0172 14.1224 17.885C13.8013 18.7118 13.5816 19.6569 13.5179 21.0401C13.4542 22.4272 13.4399 22.8692 13.4399 26.4C13.4399 29.9308 13.4542 30.3728 13.5179 31.7599C13.5816 33.1431 13.8013 34.0882 14.1224 34.915C14.4485 35.7828 14.96 36.569 15.6213 37.2186C16.271 37.8799 17.0572 38.3915 17.9249 38.7175C18.7517 39.0386 19.6968 39.2583 21.08 39.322C22.4671 39.3844 22.9091 39.4 26.4399 39.4C29.9707 39.4 30.4127 39.3844 31.7998 39.322C33.183 39.2583 34.1281 39.0386 34.9549 38.7175C35.8227 38.3915 36.6089 37.8799 37.2585 37.2186C37.9198 36.569 38.4314 35.7828 38.7574 34.915C39.0785 34.0882 39.2982 33.1431 39.3619 31.7599C39.4243 30.3728 39.4399 29.9308 39.4399 26.4C39.4399 22.8692 39.4243 22.4272 39.3619 21.0401C39.2982 19.6569 39.0785 18.7118 38.7574 17.885C38.4314 17.0172 37.9198 16.2311 37.2585 15.5814C36.6089 14.9201 35.8227 14.4086 34.9549 14.0825C34.1281 13.7614 33.183 13.5417 31.7998 13.478C30.4127 13.4156 29.9707 13.4 26.4399 13.4ZM26.4399 15.7426C29.9109 15.7426 30.3217 15.7556 31.6919 15.818C32.9607 15.8765 33.6484 16.0871 34.1073 16.2652C34.7131 16.5018 35.1473 16.7839 35.6023 17.2376C36.0573 17.6926 36.3381 18.1268 36.5747 18.7326C36.7515 19.1915 36.9647 19.8792 37.0219 21.1467C37.0843 22.5182 37.0973 22.9277 37.0973 26.4C37.0973 29.871 37.0843 30.2818 37.0219 31.652C36.9634 32.9208 36.7515 33.6085 36.5747 34.0674C36.3663 34.6321 36.0341 35.143 35.6023 35.5624C35.1473 36.0174 34.7131 36.2982 34.1073 36.5348C33.6484 36.7116 32.9607 36.9248 31.6932 36.982C30.323 37.0444 29.9122 37.0574 26.4399 37.0574C22.9689 37.0574 22.5568 37.0444 21.1879 36.982C19.9191 36.9235 19.2314 36.7116 18.7725 36.5348C18.2078 36.3264 17.697 35.9941 17.2775 35.5624C16.8458 35.143 16.5136 34.6321 16.3051 34.0674C16.127 33.6085 15.9151 32.9208 15.8579 31.6533C15.7955 30.2818 15.7825 29.8723 15.7825 26.4C15.7825 22.929 15.7955 22.5182 15.8579 21.148C15.9164 19.8792 16.127 19.1915 16.3051 18.7326C16.5417 18.1268 16.8238 17.6926 17.2775 17.2376C17.7325 16.7826 18.1667 16.5018 18.7725 16.2652C19.2314 16.0871 19.9191 15.8752 21.1866 15.818C22.5581 15.7556 22.9676 15.7426 26.4399 15.7426ZM26.4399 30.7329C25.2908 30.7329 24.1887 30.2764 23.3761 29.4638C22.5635 28.6513 22.107 27.5492 22.107 26.4C22.107 25.2509 22.5635 24.1488 23.3761 23.3362C24.1887 22.5236 25.2908 22.0671 26.4399 22.0671C27.5891 22.0671 28.6912 22.5236 29.5038 23.3362C30.3163 24.1488 30.7728 25.2509 30.7728 26.4C30.7728 27.5492 30.3163 28.6513 29.5038 29.4638C28.6912 30.2764 27.5891 30.7329 26.4399 30.7329ZM26.4399 19.7245C25.5633 19.7245 24.6952 19.8972 23.8853 20.2327C23.0754 20.5681 22.3395 21.0599 21.7196 21.6797C21.0998 22.2996 20.6081 23.0355 20.2726 23.8454C19.9371 24.6553 19.7644 25.5234 19.7644 26.4C19.7644 27.2767 19.9371 28.1447 20.2726 28.9546C20.6081 29.7645 21.0998 30.5004 21.7196 31.1203C22.3395 31.7402 23.0754 32.2319 23.8853 32.5674C24.6952 32.9029 25.5633 33.0755 26.4399 33.0755C28.2104 33.0755 29.9083 32.3722 31.1602 31.1203C32.4121 29.8684 33.1154 28.1705 33.1154 26.4C33.1154 24.6296 32.4121 22.9316 31.1602 21.6797C29.9083 20.4278 28.2104 19.7245 26.4399 19.7245ZM34.9393 19.4606C34.9393 19.6655 34.899 19.8683 34.8206 20.0576C34.7422 20.2469 34.6273 20.4189 34.4824 20.5637C34.3376 20.7086 34.1656 20.8235 33.9763 20.9019C33.7871 20.9803 33.5842 21.0206 33.3793 21.0206C33.1745 21.0206 32.9716 20.9803 32.7824 20.9019C32.5931 20.8235 32.4211 20.7086 32.2763 20.5637C32.1314 20.4189 32.0165 20.2469 31.9381 20.0576C31.8597 19.8683 31.8193 19.6655 31.8193 19.4606C31.8193 19.0469 31.9837 18.6501 32.2763 18.3575C32.5688 18.065 32.9656 17.9006 33.3793 17.9006C33.7931 17.9006 34.1899 18.065 34.4824 18.3575C34.775 18.6501 34.9393 19.0469 34.9393 19.4606Z" fill="black"/>
<circle cx="26.4399" cy="26.4" r="24.75" stroke="black" stroke-width="1.5"/>
</svg>
