<svg width="85" height="85" viewBox="0 0 85 85" fill="none" xmlns="http://www.w3.org/2000/svg">
<circle cx="42.5" cy="42.5" r="42.5" fill="#F2F7FF"/>
<g clip-path="url(#clip0_132_81)">
<path fill-rule="evenodd" clip-rule="evenodd" d="M32.625 31.0625H51.375C54.2758 31.0625 57.0578 32.2148 59.109 34.266C61.1602 36.3172 62.3125 39.0992 62.3125 42C62.3125 44.9008 61.1602 47.6828 59.109 49.734C57.0578 51.7852 54.2758 52.9375 51.375 52.9375H32.625C29.7242 52.9375 26.9422 51.7852 24.891 49.734C22.8398 47.6828 21.6875 44.9008 21.6875 42C21.6875 39.0992 22.8398 36.3172 24.891 34.266C26.9422 32.2148 29.7242 31.0625 32.625 31.0625ZM17 42C17 37.856 18.6462 33.8817 21.5765 30.9515C24.5067 28.0212 28.481 26.375 32.625 26.375H51.375C55.519 26.375 59.4933 28.0212 62.4235 30.9515C65.3538 33.8817 67 37.856 67 42C67 46.144 65.3538 50.1183 62.4235 53.0485C59.4933 55.9788 55.519 57.625 51.375 57.625H32.625C28.481 57.625 24.5067 55.9788 21.5765 53.0485C18.6462 50.1183 17 46.144 17 42ZM51.375 45.125C52.2038 45.125 52.9987 44.7958 53.5847 44.2097C54.1708 43.6237 54.5 42.8288 54.5 42C54.5 41.1712 54.1708 40.3763 53.5847 39.7903C52.9987 39.2042 52.2038 38.875 51.375 38.875C50.5462 38.875 49.7513 39.2042 49.1653 39.7903C48.5792 40.3763 48.25 41.1712 48.25 42C48.25 42.8288 48.5792 43.6237 49.1653 44.2097C49.7513 44.7958 50.5462 45.125 51.375 45.125ZM45.125 42C45.125 42.8288 44.7958 43.6237 44.2097 44.2097C43.6237 44.7958 42.8288 45.125 42 45.125C41.1712 45.125 40.3763 44.7958 39.7903 44.2097C39.2042 43.6237 38.875 42.8288 38.875 42C38.875 41.1712 39.2042 40.3763 39.7903 39.7903C40.3763 39.2042 41.1712 38.875 42 38.875C42.8288 38.875 43.6237 39.2042 44.2097 39.7903C44.7958 40.3763 45.125 41.1712 45.125 42ZM32.625 45.125C33.4538 45.125 34.2487 44.7958 34.8347 44.2097C35.4208 43.6237 35.75 42.8288 35.75 42C35.75 41.1712 35.4208 40.3763 34.8347 39.7903C34.2487 39.2042 33.4538 38.875 32.625 38.875C31.7962 38.875 31.0013 39.2042 30.4153 39.7903C29.8292 40.3763 29.5 41.1712 29.5 42C29.5 42.8288 29.8292 43.6237 30.4153 44.2097C31.0013 44.7958 31.7962 45.125 32.625 45.125Z" fill="#0752E8"/>
</g>
<defs>
<clipPath id="clip0_132_81">
<rect width="50" height="50" fill="white" transform="translate(17 17)"/>
</clipPath>
</defs>
</svg>
