<svg width="183" height="40" viewBox="0 0 183 40" fill="none" xmlns="http://www.w3.org/2000/svg">
<path d="M35.0686 24.2325L21.3886 35.1315L13.7695 38.9409L19.1867 34.6249L27.4495 28.042C27.9181 27.6801 28.0095 27.0477 27.72 26.1487C27.4267 25.2496 26.92 24.5906 26.2 24.1753L19.7581 20.4534L27.3772 16.6439L33.8191 20.3658C34.5391 20.7811 35.0457 21.4401 35.3391 22.3392C35.6286 23.2382 35.5372 23.8706 35.0686 24.2325Z" fill="#E89D07" stroke="white" stroke-width="0.761905" stroke-linecap="round" stroke-linejoin="round"/>
<path d="M21.3886 35.1316C21.2705 35.223 21.1448 35.2878 21.0076 35.3221L21.3886 35.1316Z" fill="#E89D07" stroke="white" stroke-width="0.761905" stroke-linecap="round" stroke-linejoin="round"/>
<path d="M27.4495 28.042L19.1866 34.6249L13.7695 38.9409C13.4647 39.1809 13.0914 39.2343 12.6495 39.1047C12.2038 38.9752 11.7771 38.6819 11.3581 38.2171C10.9428 37.7563 10.619 37.2268 10.3828 36.6287C10.1467 36.0306 10.0552 35.4782 10.1123 34.9716L11.4419 25.1963L6.28759 22.2211C5.62092 21.8363 5.1295 21.2078 4.81331 20.343C4.49331 19.4744 4.52758 18.8344 4.91615 18.423L17.3466 5.08585C17.4152 5.01347 17.4876 4.95633 17.5676 4.9068L17.5943 4.89157L17.7085 4.83823C17.9142 4.74681 18.1543 4.73157 18.4286 4.78109C18.8705 4.86109 19.3276 5.13157 19.7999 5.59633C20.0057 5.79823 20.1847 6.01157 20.3409 6.24014C20.5467 6.53347 20.7143 6.85347 20.84 7.19633C21.0609 7.80204 21.1447 8.35823 21.0876 8.86871L19.758 20.4535L26.2 24.1754C26.92 24.5906 27.4267 25.2497 27.72 26.1487C28.0095 27.0478 27.9181 27.6801 27.4495 28.042Z" fill="#E89D07" stroke="white" stroke-width="0.761905" stroke-linecap="round" stroke-linejoin="round"/>
<path d="M28.7066 5.05925L27.3771 16.644L19.758 20.4535L21.0876 8.86877C21.1447 8.35829 21.0609 7.8021 20.84 7.19639C20.7142 6.85353 20.5466 6.53353 20.3409 6.2402C20.1847 6.01163 20.0057 5.7983 19.8 5.59639C19.3276 5.13163 18.8704 4.86115 18.4285 4.78115C18.1542 4.73163 17.9142 4.74687 17.7085 4.8383L25.2285 1.0745C25.4609 0.944973 25.7314 0.910688 26.0476 0.97164C26.4895 1.05164 26.9466 1.32212 27.419 1.78688C27.8876 2.24783 28.2342 2.78116 28.459 3.38688C28.68 3.99258 28.7638 4.54877 28.7066 5.05925Z" fill="#E89D07" stroke="white" stroke-width="0.761905" stroke-linecap="round" stroke-linejoin="round"/>
<path d="M25.2705 1.05151L25.2285 1.07437L25.2705 1.05151Z" fill="#E89D07"/>
<path d="M25.2705 1.05151L25.2285 1.07437" stroke="white" stroke-width="0.761905" stroke-linecap="round" stroke-linejoin="round"/>
<path d="M44.152 31V9.18182H52.3338C54.0099 9.18182 55.4162 9.49432 56.5526 10.1193C57.696 10.7443 58.5589 11.6037 59.1413 12.6974C59.7308 13.7841 60.0256 15.0199 60.0256 16.4048C60.0256 17.804 59.7308 19.0469 59.1413 20.1335C58.5518 21.2202 57.6818 22.076 56.5312 22.701C55.3807 23.3189 53.9638 23.6278 52.2805 23.6278H46.858V20.3786H51.7479C52.728 20.3786 53.5305 20.2081 54.1555 19.8672C54.7805 19.5263 55.2422 19.0575 55.5405 18.4609C55.8459 17.8643 55.9986 17.179 55.9986 16.4048C55.9986 15.6307 55.8459 14.9489 55.5405 14.3594C55.2422 13.7699 54.777 13.3118 54.1449 12.9851C53.5199 12.6513 52.7138 12.4844 51.7266 12.4844H48.1044V31H44.152ZM69.8916 31.3196C68.2936 31.3196 66.9086 30.968 65.7368 30.2649C64.5649 29.5618 63.6558 28.5781 63.0095 27.3139C62.3703 26.0497 62.0507 24.5724 62.0507 22.8821C62.0507 21.1918 62.3703 19.7109 63.0095 18.4396C63.6558 17.1683 64.5649 16.1811 65.7368 15.478C66.9086 14.7749 68.2936 14.4233 69.8916 14.4233C71.4896 14.4233 72.8745 14.7749 74.0464 15.478C75.2183 16.1811 76.1238 17.1683 76.763 18.4396C77.4093 19.7109 77.7325 21.1918 77.7325 22.8821C77.7325 24.5724 77.4093 26.0497 76.763 27.3139C76.1238 28.5781 75.2183 29.5618 74.0464 30.2649C72.8745 30.968 71.4896 31.3196 69.8916 31.3196ZM69.9129 28.2301C70.7794 28.2301 71.5038 27.9922 72.0862 27.5163C72.6686 27.0334 73.1018 26.3871 73.3859 25.5774C73.6771 24.7678 73.8227 23.8658 73.8227 22.8714C73.8227 21.87 73.6771 20.9645 73.3859 20.1548C73.1018 19.3381 72.6686 18.6882 72.0862 18.2053C71.5038 17.7223 70.7794 17.4808 69.9129 17.4808C69.0251 17.4808 68.2865 17.7223 67.697 18.2053C67.1146 18.6882 66.6778 19.3381 66.3866 20.1548C66.1025 20.9645 65.9605 21.87 65.9605 22.8714C65.9605 23.8658 66.1025 24.7678 66.3866 25.5774C66.6778 26.3871 67.1146 27.0334 67.697 27.5163C68.2865 27.9922 69.0251 28.2301 69.9129 28.2301ZM83.6141 31L78.9906 14.6364H82.9217L85.7981 26.142H85.9472L88.8876 14.6364H92.7761L95.7164 26.0781H95.8762L98.71 14.6364H102.652L98.0175 31H94.0012L90.933 19.9418H90.7093L87.6411 31H83.6141ZM111.82 31.3196C110.179 31.3196 108.762 30.9787 107.569 30.2969C106.383 29.608 105.471 28.6349 104.831 27.3778C104.192 26.1136 103.873 24.6257 103.873 22.9141C103.873 21.2308 104.192 19.7536 104.831 18.4822C105.478 17.2038 106.38 16.2095 107.537 15.4993C108.695 14.782 110.055 14.4233 111.618 14.4233C112.626 14.4233 113.578 14.5866 114.473 14.9134C115.375 15.233 116.17 15.7301 116.859 16.4048C117.555 17.0795 118.102 17.9389 118.5 18.983C118.897 20.0199 119.096 21.2557 119.096 22.6903V23.8729H105.684V21.2734H115.4C115.392 20.5348 115.233 19.8778 114.92 19.3026C114.608 18.7202 114.171 18.2621 113.61 17.9283C113.056 17.5945 112.409 17.4276 111.671 17.4276C110.882 17.4276 110.19 17.6193 109.593 18.0028C108.997 18.3793 108.532 18.8764 108.198 19.4943C107.871 20.1051 107.704 20.7763 107.697 21.5078V23.777C107.697 24.7287 107.871 25.5455 108.219 26.2273C108.567 26.902 109.054 27.4205 109.679 27.7827C110.304 28.1378 111.035 28.3153 111.873 28.3153C112.434 28.3153 112.942 28.2372 113.397 28.081C113.851 27.9176 114.245 27.6797 114.579 27.3672C114.913 27.0547 115.165 26.6676 115.336 26.206L118.936 26.6108C118.709 27.5625 118.276 28.3935 117.637 29.1037C117.005 29.8068 116.195 30.3537 115.208 30.7443C114.221 31.1278 113.091 31.3196 111.82 31.3196ZM122.059 31V14.6364H125.798V17.3636H125.969C126.267 16.419 126.778 15.6911 127.503 15.1797C128.234 14.6612 129.069 14.402 130.006 14.402C130.219 14.402 130.457 14.4126 130.72 14.4339C130.99 14.4482 131.214 14.473 131.391 14.5085V18.0561C131.228 17.9993 130.969 17.9496 130.614 17.907C130.266 17.8572 129.928 17.8324 129.601 17.8324C128.898 17.8324 128.266 17.9851 127.705 18.2905C127.151 18.5888 126.714 19.0043 126.395 19.5369C126.075 20.0696 125.915 20.6839 125.915 21.38V31H122.059ZM137.51 9.18182V31H133.653V9.18182H137.51ZM141.176 31V14.6364H145.032V31H141.176ZM143.115 12.3139C142.504 12.3139 141.978 12.1115 141.538 11.7067C141.098 11.2947 140.877 10.8011 140.877 10.2259C140.877 9.64347 141.098 9.14986 141.538 8.74503C141.978 8.3331 142.504 8.12713 143.115 8.12713C143.732 8.12713 144.258 8.3331 144.691 8.74503C145.132 9.14986 145.352 9.64347 145.352 10.2259C145.352 10.8011 145.132 11.2947 144.691 11.7067C144.258 12.1115 143.732 12.3139 143.115 12.3139ZM152.554 21.4119V31H148.698V14.6364H152.384V17.4169H152.576C152.952 16.5007 153.552 15.7727 154.376 15.233C155.207 14.6932 156.233 14.4233 157.455 14.4233C158.584 14.4233 159.568 14.6648 160.406 15.1477C161.251 15.6307 161.905 16.3303 162.366 17.2464C162.835 18.1626 163.066 19.2741 163.059 20.581V31H159.202V21.1776C159.202 20.0838 158.918 19.228 158.35 18.6101C157.789 17.9922 157.011 17.6832 156.017 17.6832C155.342 17.6832 154.742 17.8324 154.216 18.1307C153.698 18.4219 153.29 18.8445 152.991 19.3984C152.7 19.9524 152.554 20.6236 152.554 21.4119ZM173.924 31.3196C172.283 31.3196 170.866 30.9787 169.673 30.2969C168.487 29.608 167.574 28.6349 166.935 27.3778C166.296 26.1136 165.976 24.6257 165.976 22.9141C165.976 21.2308 166.296 19.7536 166.935 18.4822C167.581 17.2038 168.483 16.2095 169.641 15.4993C170.799 14.782 172.159 14.4233 173.721 14.4233C174.73 14.4233 175.681 14.5866 176.576 14.9134C177.478 15.233 178.274 15.7301 178.963 16.4048C179.659 17.0795 180.205 17.9389 180.603 18.983C181.001 20.0199 181.2 21.2557 181.2 22.6903V23.8729H167.787V21.2734H177.503C177.496 20.5348 177.336 19.8778 177.024 19.3026C176.711 18.7202 176.274 18.2621 175.713 17.9283C175.159 17.5945 174.513 17.4276 173.774 17.4276C172.986 17.4276 172.294 17.6193 171.697 18.0028C171.1 18.3793 170.635 18.8764 170.301 19.4943C169.975 20.1051 169.808 20.7763 169.801 21.5078V23.777C169.801 24.7287 169.975 25.5455 170.323 26.2273C170.671 26.902 171.157 27.4205 171.782 27.7827C172.407 28.1378 173.139 28.3153 173.977 28.3153C174.538 28.3153 175.046 28.2372 175.5 28.081C175.955 27.9176 176.349 27.6797 176.683 27.3672C177.017 27.0547 177.269 26.6676 177.439 26.206L181.04 26.6108C180.813 27.5625 180.379 28.3935 179.74 29.1037C179.108 29.8068 178.299 30.3537 177.311 30.7443C176.324 31.1278 175.195 31.3196 173.924 31.3196Z" fill="black"/>
</svg>
